<?xml version="1.0" standalone="no"?>
<!DOCTYPE svg PUBLIC "-//W3C//DTD SVG 20010904//EN"
 "http://www.w3.org/TR/2001/REC-SVG-20010904/DTD/svg10.dtd">
<svg version="1.0" xmlns="http://www.w3.org/2000/svg"
 width="1204.000000pt" height="1204.000000pt" viewBox="0 0 1204.000000 1204.000000"
 preserveAspectRatio="xMidYMid meet">
<metadata>
Created by potrace 1.14, written by Peter Selinger 2001-2017
</metadata>
<g transform="translate(0.000000,1204.000000) scale(0.100000,-0.100000)"
fill="#000000" stroke="none">
<path d="M5907 9684 c-1 -1 -29 -4 -63 -7 -33 -3 -72 -10 -85 -16 -13 -5 -58
-20 -99 -32 -41 -12 -115 -34 -164 -50 -49 -16 -99 -31 -110 -33 -12 -3 -34
-9 -51 -15 -16 -6 -66 -21 -110 -35 -135 -40 -286 -87 -362 -113 -40 -13 -81
-26 -90 -28 -10 -2 -79 -24 -153 -49 -74 -26 -137 -47 -140 -47 -3 -1 -9 -3
-15 -5 -5 -2 -68 -24 -140 -49 -71 -24 -179 -62 -240 -84 -60 -21 -168 -60
-240 -85 -71 -25 -139 -50 -150 -55 -11 -5 -51 -20 -88 -32 -78 -27 -79 -26
60 -58 102 -24 209 -56 235 -71 10 -6 25 -10 33 -10 8 0 23 -4 33 -10 9 -5 51
-24 92 -41 89 -38 208 -100 268 -140 24 -16 45 -29 47 -29 3 0 13 -6 22 -14
10 -8 47 -36 83 -63 61 -45 218 -195 285 -273 26 -30 110 -155 152 -225 31
-52 75 -153 93 -216 13 -44 26 -69 33 -66 7 2 62 23 122 47 61 23 124 48 140
55 17 7 50 20 75 28 25 9 59 21 75 28 17 7 32 13 35 14 10 4 46 17 68 26 12 5
34 14 50 20 15 6 40 17 55 25 20 10 26 10 21 1 -4 -6 2 -4 13 6 11 9 28 17 39
17 11 0 24 4 29 9 12 10 87 36 98 33 4 -1 7 2 7 7 0 5 12 12 27 16 14 3 72 24
127 46 56 23 108 42 116 44 8 2 35 12 60 23 71 30 84 35 94 33 4 -1 13 3 20 8
14 11 298 121 314 121 7 0 12 4 12 8 0 5 6 9 13 9 6 0 55 17 107 38 98 38 171
66 288 111 207 79 257 102 255 115 -6 46 -22 87 -101 249 -25 52 -50 97 -54
98 -4 2 -8 8 -8 13 0 13 -84 133 -136 194 -223 266 -571 458 -889 491 -59 6
-90 11 -90 14 0 2 -116 6 -118 4z"/>
<path d="M3115 8790 c-28 -12 -58 -23 -70 -26 -5 -1 -138 -48 -295 -104 -157
-56 -316 -112 -355 -125 -38 -13 -149 -51 -245 -85 -214 -76 -342 -121 -355
-124 -5 -2 -18 -6 -27 -10 -9 -4 -22 -9 -30 -10 -7 -1 -31 -10 -53 -20 -21 -9
-46 -18 -55 -19 -8 -2 -19 -5 -25 -8 -5 -3 -37 -14 -70 -25 -33 -10 -63 -23
-67 -29 -4 -5 -8 -7 -8 -3 0 3 -64 -16 -142 -44 -79 -27 -147 -50 -153 -51 -5
-1 -12 -4 -15 -7 -3 -3 -41 -17 -84 -31 l-79 -26 69 -49 c38 -27 71 -52 72
-56 2 -5 8 -8 12 -8 5 0 40 -22 77 -50 37 -27 86 -62 107 -77 22 -16 59 -43
83 -60 24 -18 46 -33 49 -33 2 0 10 -5 17 -10 45 -38 61 -50 67 -50 3 0 15 -8
26 -18 10 -10 42 -33 69 -52 28 -19 51 -37 53 -42 2 -4 8 -8 12 -8 9 0 130
-85 163 -114 9 -9 17 -13 17 -8 0 4 4 2 8 -3 4 -6 20 -19 36 -30 16 -11 41
-29 57 -40 15 -11 87 -63 161 -114 73 -52 135 -97 138 -100 3 -4 28 -22 55
-40 28 -19 53 -40 57 -45 5 -7 8 -7 8 -1 0 6 3 6 8 -1 4 -6 81 -63 171 -128
120 -85 170 -116 185 -112 12 3 25 5 30 5 5 -1 12 3 15 8 3 4 33 19 66 32 33
13 78 32 100 42 101 45 235 99 244 99 6 0 11 4 11 8 0 5 6 9 13 9 6 0 32 9 57
20 25 12 74 33 110 47 36 15 79 33 95 41 34 15 73 32 160 66 33 13 62 27 63
32 2 4 9 7 17 7 12 0 62 20 152 61 24 10 45 19 48 19 2 0 28 11 57 24 29 13
64 27 78 31 14 4 30 11 35 15 6 5 35 18 65 29 30 12 64 26 75 30 11 5 40 18
65 29 25 11 101 43 170 72 141 58 142 59 225 96 33 14 65 27 70 29 25 5 45 18
45 28 0 18 -82 179 -128 252 -46 72 -111 157 -124 163 -5 2 -8 8 -8 13 0 24
-276 275 -322 292 -10 3 -18 11 -18 17 0 5 -4 10 -9 10 -6 0 -29 13 -53 29
-56 38 -216 121 -298 156 -117 50 -338 121 -435 140 -11 2 -32 7 -47 10 -16 3
-39 7 -53 10 -38 8 -73 14 -124 21 -25 4 -53 8 -61 9 -8 1 -24 -1 -35 -5z"/>
<path d="M7465 8466 c-89 -39 -107 -46 -120 -46 -8 0 -15 -4 -15 -10 0 -5 -3
-9 -7 -8 -8 2 -109 -33 -148 -52 -11 -5 -67 -28 -125 -50 -58 -23 -123 -49
-145 -59 -22 -10 -51 -22 -65 -26 -14 -4 -38 -13 -55 -21 -16 -7 -77 -31 -135
-54 -58 -22 -113 -45 -124 -51 -10 -6 -26 -12 -35 -14 -21 -5 -125 -46 -223
-89 -20 -9 -39 -16 -43 -16 -4 0 -21 -7 -38 -14 -18 -8 -124 -51 -237 -96
-113 -44 -214 -85 -225 -89 -11 -5 -51 -21 -90 -36 -38 -15 -86 -35 -105 -43
-19 -9 -37 -17 -40 -17 -10 -2 -124 -46 -134 -53 -6 -3 -15 -7 -21 -8 -5 -1
-23 -8 -40 -15 -16 -7 -32 -13 -35 -14 -3 -1 -16 -6 -30 -12 -14 -6 -63 -25
-110 -44 -47 -18 -89 -36 -94 -41 -6 -4 -15 -8 -22 -8 -6 0 -29 -8 -50 -17
-22 -9 -43 -18 -49 -19 -8 -3 -146 -58 -220 -89 -11 -5 -22 -9 -25 -10 -3 -1
-18 -7 -33 -13 -16 -7 -31 -12 -33 -12 -3 0 -30 -11 -60 -25 -30 -14 -56 -25
-59 -25 -2 0 -16 -5 -32 -12 -15 -6 -30 -12 -33 -13 -15 -5 -47 -18 -65 -26
-11 -4 -101 -40 -200 -79 -99 -39 -217 -87 -262 -106 -45 -19 -85 -34 -88 -34
-4 0 -21 -6 -38 -14 -74 -34 -156 -64 -161 -58 -3 3 -6 0 -6 -6 0 -7 -6 -12
-12 -12 -7 0 -25 -6 -39 -14 -28 -14 -80 -30 -91 -28 -5 1 -8 -2 -8 -7 0 -7
-36 -22 -62 -25 -3 -1 -10 -4 -14 -8 -4 -5 -16 -8 -26 -8 -10 0 -18 -4 -18
-10 0 -5 -7 -10 -14 -10 -8 0 -81 -27 -163 -60 -81 -33 -152 -60 -158 -60 -6
0 -16 -5 -22 -11 -9 -9 -4 -18 17 -35 15 -13 32 -24 38 -24 6 0 12 -4 14 -8 2
-4 44 -37 93 -72 50 -36 92 -68 95 -71 3 -3 23 -18 45 -32 22 -14 95 -67 163
-116 68 -50 127 -91 132 -91 4 0 10 -3 12 -8 1 -4 53 -43 113 -87 61 -44 112
-83 113 -87 2 -4 8 -8 13 -8 11 0 89 -58 101 -75 4 -5 8 -6 8 -2 0 4 9 -1 20
-11 12 -11 46 -37 78 -58 31 -21 59 -41 62 -44 15 -16 192 -140 200 -140 6 0
10 -4 10 -8 0 -5 23 -23 50 -41 28 -18 56 -38 63 -44 7 -7 35 -28 62 -46 28
-19 52 -37 55 -40 3 -4 28 -22 55 -41 28 -19 52 -38 53 -42 2 -4 8 -8 13 -8
10 0 24 -10 60 -42 10 -10 21 -18 24 -18 6 0 65 -40 75 -50 8 -8 112 -84 152
-110 21 -14 38 -28 38 -32 0 -5 6 -8 14 -8 8 0 16 -4 18 -8 3 -7 140 -107 282
-207 24 -16 56 -40 72 -52 16 -13 83 -62 149 -109 66 -48 123 -92 127 -98 4
-6 8 -8 8 -4 0 4 28 -14 63 -40 71 -52 109 -80 212 -152 39 -27 80 -59 92 -70
12 -11 27 -20 32 -20 5 0 11 -4 13 -8 2 -4 19 -19 38 -32 36 -24 347 -248 365
-263 6 -4 36 -25 67 -47 l57 -39 88 43 c48 23 109 51 135 62 27 10 48 22 48
27 0 4 6 7 14 7 8 0 39 13 70 29 31 17 56 28 56 26 0 -3 26 8 58 24 31 17 68
34 82 40 14 6 32 15 40 20 8 5 41 21 73 35 31 14 83 38 115 52 31 14 64 30 72
35 8 5 22 12 30 15 8 3 27 12 41 20 14 7 29 11 33 7 3 -3 6 -1 6 5 0 6 9 14
21 17 11 4 63 27 114 51 52 24 99 44 105 44 5 0 10 5 10 10 0 6 6 10 13 10 6
0 48 17 92 39 44 21 103 48 130 61 28 12 88 40 135 62 104 50 235 111 317 149
34 16 67 29 73 29 5 0 10 4 10 10 0 5 3 9 8 8 4 -1 31 10 61 25 30 15 60 27
67 27 6 0 17 7 24 15 7 8 16 12 21 9 5 -3 9 0 9 5 0 6 3 10 8 9 4 -1 32 10 62
24 135 63 191 88 200 88 6 0 10 4 10 10 0 5 3 9 8 8 7 -1 44 15 227 102 61 29
138 65 173 81 35 16 107 50 160 75 53 26 122 58 152 71 50 23 116 54 302 141
37 18 72 32 77 32 6 0 11 5 11 10 0 6 6 10 14 10 8 0 45 15 83 34 37 19 97 47
133 64 36 16 103 48 150 70 82 38 160 74 320 149 41 19 107 50 146 69 38 19
76 34 82 34 7 0 12 4 12 9 0 5 10 11 22 13 38 5 30 23 -29 58 -32 19 -62 38
-68 43 -18 14 -179 117 -195 124 -8 4 -19 11 -25 15 -26 22 -277 178 -285 178
-6 0 -10 5 -10 10 0 6 -4 10 -10 10 -5 0 -29 13 -52 29 -76 51 -495 318 -541
345 -17 10 -33 22 -35 27 -2 5 -8 9 -12 9 -8 0 -49 25 -235 145 -33 22 -63 38
-66 37 -4 0 -15 8 -24 18 -10 11 -24 20 -32 20 -7 0 -13 5 -13 10 0 6 -7 10
-15 10 -8 0 -15 3 -15 8 0 6 -78 55 -141 87 -10 5 -19 13 -19 17 0 5 -7 8 -15
8 -8 0 -15 5 -15 10 0 6 -7 10 -15 10 -8 0 -15 5 -15 10 0 6 -6 10 -14 10 -8
0 -16 4 -18 8 -1 5 -28 23 -58 40 -78 46 -94 56 -100 62 -3 3 -48 32 -100 65
-52 32 -138 87 -191 122 -53 35 -100 63 -103 63 -4 0 -12 5 -19 11 -7 6 -124
82 -262 169 -137 87 -255 164 -262 169 -7 6 -14 11 -17 11 -4 0 -134 82 -206
130 -8 5 -35 23 -60 40 -25 16 -50 30 -57 30 -6 0 -13 3 -15 8 -4 10 -243 162
-254 162 -5 0 -22 -6 -39 -14z"/>
<path d="M726 7160 c0 -380 3 -692 5 -693 2 -2 29 -21 59 -42 30 -22 60 -43
65 -47 104 -80 156 -118 161 -118 5 0 7 -1 64 -50 19 -16 38 -30 41 -30 3 0
15 -8 27 -17 52 -45 63 -53 67 -53 6 0 141 -101 168 -125 10 -8 30 -23 45 -33
15 -9 63 -44 107 -76 44 -33 114 -85 155 -115 41 -31 77 -59 78 -63 2 -5 8 -8
13 -8 5 0 17 -7 26 -15 26 -21 211 -158 422 -312 69 -51 131 -96 136 -100 6
-5 26 -20 45 -33 19 -14 39 -30 46 -35 6 -6 36 -28 67 -49 32 -22 57 -43 57
-48 0 -4 7 -8 15 -8 8 0 15 -4 15 -9 0 -5 8 -12 18 -15 9 -4 31 -19 49 -34 18
-15 73 -56 123 -92 50 -36 104 -75 118 -88 15 -13 48 -37 75 -54 26 -17 47
-35 47 -40 0 -4 4 -8 10 -8 8 0 34 -18 145 -102 18 -14 177 -131 295 -217 63
-47 117 -88 118 -93 2 -4 8 -8 14 -8 6 0 32 -18 58 -40 26 -22 53 -40 59 -40
6 0 11 -4 11 -8 0 -4 13 -16 30 -25 16 -10 36 -24 43 -32 8 -8 30 -24 48 -37
43 -30 278 -204 302 -223 9 -8 19 -15 22 -15 5 0 37 -25 60 -47 8 -7 18 -13
24 -13 6 0 11 -4 11 -8 0 -4 13 -16 30 -25 16 -10 35 -23 42 -30 7 -7 33 -27
58 -44 25 -17 56 -40 69 -52 13 -12 27 -21 31 -21 3 0 15 -8 26 -18 16 -14 64
-51 169 -126 28 -21 208 -154 220 -163 6 -5 28 -21 50 -37 22 -17 42 -33 45
-36 3 -3 18 -14 35 -24 16 -11 34 -23 40 -28 12 -10 57 -44 235 -175 293 -216
379 -280 485 -358 61 -45 198 -146 305 -225 107 -79 201 -150 208 -157 7 -7
16 -13 20 -13 4 0 23 -14 42 -30 19 -16 38 -30 41 -30 3 0 17 -9 30 -21 13
-12 43 -34 66 -50 23 -16 43 -33 45 -38 1 -5 29 3 60 19 32 15 58 25 58 22 0
-3 9 3 20 13 11 10 20 15 20 12 0 -4 26 6 58 22 115 58 302 144 314 145 4 1
13 7 20 13 6 7 15 13 20 13 4 0 51 20 104 45 53 25 100 45 105 45 5 0 9 5 9
10 0 6 5 10 12 10 11 0 28 7 173 75 39 18 108 51 155 73 47 22 123 58 170 80
47 22 114 54 150 70 162 75 288 134 323 152 22 11 45 20 53 20 8 0 14 5 14 10
0 6 5 10 10 10 10 0 32 10 265 120 61 29 116 53 123 53 6 0 12 4 12 8 0 4 22
15 50 25 27 10 50 22 50 26 0 4 5 8 11 8 6 0 41 14 77 31 37 17 100 47 140 65
39 19 77 34 82 34 6 0 10 5 10 10 0 6 5 10 10 10 6 0 50 18 98 41 97 46 125
57 132 55 3 0 19 9 35 20 17 12 42 24 58 28 15 3 27 11 27 16 0 6 7 10 15 10
8 0 51 18 96 40 45 22 88 40 95 40 7 0 14 5 16 11 2 5 10 11 18 13 8 1 56 22
105 45 50 24 122 58 160 76 39 18 102 47 140 65 39 18 113 53 165 78 96 45
195 91 305 142 33 15 127 60 209 99 82 39 155 71 162 71 7 0 14 4 16 8 2 4 42
25 91 47 l87 39 0 784 0 783 -21 -6 c-11 -4 -73 -32 -137 -63 -64 -31 -119
-56 -122 -57 -3 0 -36 -16 -75 -34 -67 -32 -193 -91 -320 -151 -33 -15 -104
-49 -158 -74 -179 -85 -248 -116 -258 -116 -5 0 -9 -5 -9 -10 0 -6 -3 -9 -7
-8 -12 2 -233 -97 -273 -123 -8 -5 -22 -12 -30 -16 -8 -3 -40 -17 -70 -31 -30
-14 -57 -26 -60 -27 -3 -1 -54 -25 -115 -54 -60 -30 -116 -54 -122 -54 -7 0
-13 -3 -13 -6 0 -3 -15 -12 -32 -20 -18 -8 -62 -28 -98 -45 -36 -16 -68 -29
-72 -28 -5 1 -8 -2 -8 -8 0 -5 -4 -10 -10 -10 -5 0 -49 -19 -97 -42 -49 -23
-90 -42 -93 -43 -3 0 -36 -16 -75 -34 -108 -51 -202 -95 -297 -140 -49 -23
-127 -59 -174 -81 -47 -22 -89 -40 -95 -40 -5 0 -9 -5 -9 -10 0 -6 -3 -9 -7
-8 -15 3 -176 -72 -181 -84 -2 -5 -10 -8 -17 -8 -7 0 -64 -24 -127 -54 -236
-112 -331 -156 -339 -156 -5 0 -9 -4 -9 -8 0 -4 -10 -8 -22 -9 -11 -1 -24 -6
-27 -10 -5 -7 -58 -34 -71 -36 -3 0 -25 -10 -50 -23 -25 -12 -94 -45 -155 -74
-60 -28 -143 -67 -183 -86 -40 -19 -77 -34 -83 -34 -5 0 -9 -5 -9 -10 0 -6 -3
-9 -7 -8 -10 2 -34 -8 -183 -79 -69 -33 -143 -68 -165 -77 -22 -10 -47 -22
-55 -27 -8 -5 -25 -13 -38 -19 -12 -5 -42 -19 -66 -30 -50 -22 -66 -25 -66
-10 0 6 -4 10 -10 10 -11 0 -98 58 -120 80 -8 8 -27 21 -42 29 -16 8 -28 18
-28 23 0 4 -5 8 -10 8 -9 0 -114 73 -157 110 -7 5 -15 10 -18 10 -3 0 -11 5
-18 11 -7 5 -66 48 -132 95 -66 46 -127 90 -136 97 -8 7 -23 17 -31 22 -9 6
-51 35 -94 65 -44 31 -110 78 -149 105 -38 27 -71 52 -73 57 -2 4 -10 8 -18 8
-8 0 -14 4 -14 8 0 4 -15 16 -32 27 -39 22 -186 126 -210 149 -10 9 -20 16
-23 16 -5 0 -250 172 -380 266 -11 8 -96 68 -190 134 -93 65 -174 123 -180
127 -5 5 -48 35 -95 67 -47 33 -87 62 -90 66 -3 3 -22 16 -43 29 -21 13 -43
28 -50 34 -7 7 -20 17 -29 22 -30 18 -213 148 -218 154 -3 3 -32 24 -65 46
-109 73 -340 239 -343 247 -2 4 -7 8 -12 8 -8 0 -316 216 -365 255 -11 9 -39
28 -62 42 -24 14 -43 29 -43 34 0 5 -5 9 -11 9 -5 0 -30 15 -54 33 -24 17 -74
52 -110 77 -37 25 -72 50 -78 55 -7 6 -41 31 -77 55 -36 25 -66 48 -68 53 -2
4 -10 7 -17 7 -7 0 -15 4 -17 8 -1 4 -64 50 -138 102 -74 52 -137 97 -140 100
-3 3 -12 10 -21 15 -26 16 -91 62 -134 94 -22 17 -47 34 -55 38 -8 3 -17 9
-20 13 -3 3 -36 28 -75 55 -38 27 -76 55 -83 62 -7 7 -19 13 -27 13 -7 0 -15
4 -17 8 -1 4 -34 30 -73 57 -38 27 -72 52 -75 55 -3 3 -34 25 -70 49 -36 25
-89 62 -117 83 -29 21 -56 38 -59 37 -4 0 -10 3 -13 8 -3 5 -80 62 -171 125
-91 64 -173 123 -182 132 -10 9 -20 16 -23 16 -2 0 -34 21 -71 48 -70 49 -119
84 -194 136 -25 17 -47 34 -50 37 -6 7 -128 89 -132 89 -2 0 -3 -311 -2 -690z"/>
</g>
</svg>
